<svg version="1.2" baseProfile="tiny-ps" xmlns="http://www.w3.org/2000/svg" viewBox="0 0 600 436" width="600" height="436">
	<title>blue_square_2-d537fb228cf3ded904ef09b136fe3fec72548ebc1fea3fbbd1ad9e36364db38b-svg</title>
	<defs>
		<linearGradient id="grd1" gradientUnits="userSpaceOnUse"  x1="0" y1="219.033" x2="596.903" y2="219.033">
			<stop offset="0" stop-color="#90cea1"  />
			<stop offset="0.56" stop-color="#3cbec9"  />
			<stop offset="1" stop-color="#00b3e5"  />
		</linearGradient>
	</defs>
	<style>
		tspan { white-space:pre }
		.shp0 { fill: url(#grd1) } 
	</style>
	<path id="Layer" fill-rule="evenodd" class="shp0" d="M164.71 219.03C164.7 211.54 166.16 204.13 169.02 197.2C171.88 190.28 176.08 183.99 181.37 178.69C186.66 173.39 192.95 169.18 199.87 166.32C206.75 163.47 214.11 161.99 221.55 161.97C228.99 161.99 236.35 163.47 243.22 166.32C250.14 169.18 256.43 173.39 261.73 178.69C267.02 183.99 271.22 190.28 274.08 197.2C276.93 204.13 278.4 211.54 278.39 219.03C278.39 226.51 276.91 233.92 274.05 240.83C271.18 247.74 266.99 254.02 261.69 259.31C256.4 264.6 250.12 268.8 243.2 271.66C236.33 274.5 228.98 275.98 221.55 276C214.12 275.98 206.76 274.5 199.9 271.66C192.98 268.8 186.7 264.6 181.4 259.31C176.11 254.02 171.91 247.74 169.05 240.83C166.18 233.92 164.71 226.51 164.71 219.03ZM221.55 276C221.6 276 221.66 276 221.71 276L221.39 276C221.44 276 221.49 276 221.55 276ZM221.39 161.97L221.71 161.97C221.66 161.97 221.6 161.97 221.55 161.97C221.49 161.97 221.44 161.97 221.39 161.97ZM431.39 118.03C423.9 118.03 416.49 116.56 409.57 113.69C402.66 110.83 396.37 106.63 391.08 101.34C385.79 96.05 381.59 89.77 378.73 82.86C375.86 75.95 374.39 68.54 374.39 61.06C374.37 53.57 375.84 46.16 378.7 39.23C381.56 32.31 385.75 26.02 391.05 20.72C396.34 15.42 402.63 11.21 409.55 8.35C416.47 5.48 423.89 4 431.39 4L537.52 4C545.01 4 552.43 5.48 559.35 8.35C566.27 11.21 572.56 15.42 577.86 20.72C583.15 26.02 587.35 32.31 590.21 39.23C593.06 46.16 594.53 53.57 594.52 61.06C594.52 68.54 593.04 75.95 590.18 82.86C587.31 89.77 583.11 96.05 577.82 101.34C572.53 106.63 566.24 110.83 559.33 113.69C552.41 116.56 545 118.03 537.52 118.03L431.39 118.03ZM66.87 433.97C59.39 433.97 51.97 432.5 45.06 429.63C38.14 426.77 31.86 422.57 26.57 417.28C21.27 411.99 17.07 405.71 14.21 398.8C11.35 391.89 9.87 384.48 9.87 377C9.86 369.51 11.32 362.1 14.18 355.17C17.04 348.25 21.24 341.96 26.53 336.66C31.83 331.36 38.11 327.15 45.04 324.29C51.96 321.42 59.38 319.94 66.87 319.94L273 319.94C280.49 319.94 287.91 321.42 294.84 324.29C301.76 327.15 308.05 331.36 313.34 336.66C318.63 341.96 322.83 348.25 325.69 355.17C328.55 362.1 330.01 369.51 330 377C330 384.48 328.53 391.89 325.66 398.8C322.8 405.71 318.6 411.99 313.31 417.28C308.01 422.57 301.73 426.77 294.81 429.63C287.9 432.5 280.49 433.97 273 433.97L66.87 433.97ZM291.94 161.97L320.65 161.97L348.87 236.76L349.19 236.76L377.9 161.97L404.84 161.97L357.74 276L337.58 276L291.94 161.97ZM442.26 161.97L467.42 161.97L467.42 276L442.26 276L442.26 161.97ZM514.03 161.97L591.45 161.97L591.45 185.18L539.03 185.18L539.03 206.46L588.55 206.46L588.55 229.67L539.03 229.67L539.03 252.88L594.35 252.88L594.35 276L513.87 276L514.03 161.97ZM32.58 26.24L0 26.24L0 4L90.32 4L90.32 26.24L57.74 26.24L57.74 118.13L32.58 118.13L32.58 26.24ZM125.81 4L150.81 4L150.81 46.56L199.68 46.56L199.68 4L224.84 4L224.84 118.13L199.68 118.13L199.68 68.8L150.97 68.8L150.97 118.13L125.81 118.13L125.81 4ZM258.87 4L336.29 4L336.29 27.21L283.87 27.21L283.87 48.49L333.39 48.49L333.39 71.7L283.87 71.7L283.87 94.91L339.52 94.91L339.52 118.13L258.87 118.13L258.87 4ZM3.87 161.97L41.94 161.97L68.23 236.44L68.55 236.44L95 161.97L132.9 161.97L132.9 276.1L107.74 276.1L107.74 188.57L107.42 188.57L77.42 276.1L58.39 276.1L29.35 188.57L29.03 188.57L29.03 276.1L4.03 276.1L3.87 161.97ZM365.45 319.94L403.23 319.94C405.42 319.94 407.61 320.01 409.8 320.15C411.98 320.29 414.17 320.49 416.34 320.76C418.51 321.03 420.68 321.37 422.84 321.77C424.99 322.17 427.13 322.63 429.26 323.16C431.21 323.6 433.13 324.14 435.02 324.77C436.92 325.4 438.78 326.13 440.6 326.94C442.42 327.76 444.2 328.67 445.93 329.66C447.67 330.66 449.34 331.74 450.97 332.9C452.52 334.07 453.99 335.33 455.39 336.67C456.79 338.01 458.1 339.44 459.33 340.94C460.55 342.44 461.69 344.01 462.73 345.65C463.77 347.28 464.71 348.98 465.55 350.73C466.5 352.8 467.33 354.93 468.04 357.1C468.75 359.27 469.34 361.48 469.79 363.71C470.25 365.95 470.57 368.21 470.77 370.49C470.97 372.76 471.03 375.04 470.97 377.33C470.99 379.43 470.88 381.54 470.66 383.64C470.43 385.73 470.08 387.81 469.62 389.87C469.15 391.92 468.57 393.95 467.86 395.94C467.16 397.92 466.35 399.87 465.42 401.76C464.58 403.47 463.65 405.13 462.64 406.74C461.62 408.35 460.52 409.9 459.33 411.39C458.15 412.88 456.89 414.31 455.55 415.66C454.21 417.01 452.8 418.29 451.32 419.49C449.8 420.7 448.23 421.85 446.6 422.91C444.98 423.98 443.3 424.97 441.59 425.88C439.87 426.79 438.11 427.62 436.32 428.37C434.52 429.11 432.69 429.78 430.84 430.36C428.87 430.98 426.88 431.53 424.87 432C422.86 432.47 420.83 432.85 418.79 433.17C416.75 433.48 414.7 433.71 412.64 433.86C410.58 434.01 408.52 434.08 406.45 434.07L365.61 434.07L365.45 319.94ZM390.65 410.85L404.03 410.85C405.39 410.86 406.74 410.83 408.1 410.76C409.45 410.7 410.8 410.59 412.15 410.44C413.5 410.29 414.84 410.1 416.17 409.88C417.51 409.65 418.84 409.38 420.16 409.08C421.32 408.81 422.47 408.49 423.6 408.11C424.72 407.72 425.83 407.29 426.91 406.79C428 406.29 429.05 405.74 430.08 405.14C431.11 404.54 432.1 403.88 433.06 403.18C433.99 402.48 434.87 401.72 435.71 400.91C436.54 400.1 437.32 399.24 438.04 398.33C438.77 397.43 439.44 396.48 440.05 395.49C440.65 394.5 441.2 393.47 441.68 392.41C442.24 391.13 442.73 389.81 443.15 388.48C443.57 387.14 443.92 385.78 444.19 384.4C444.46 383.03 444.66 381.64 444.78 380.24C444.9 378.84 444.94 377.44 444.9 376.04C444.93 374.78 444.88 373.52 444.75 372.27C444.63 371.03 444.43 369.78 444.16 368.56C443.89 367.33 443.54 366.12 443.13 364.94C442.71 363.75 442.23 362.59 441.68 361.46C441.18 360.46 440.63 359.49 440.02 358.55C439.42 357.61 438.76 356.71 438.05 355.85C437.34 354.99 436.58 354.17 435.77 353.39C434.96 352.62 434.12 351.89 433.23 351.21C432.29 350.52 431.32 349.87 430.32 349.27C429.32 348.66 428.3 348.11 427.25 347.6C426.2 347.09 425.13 346.63 424.04 346.22C422.94 345.81 421.83 345.46 420.71 345.15C419.48 344.82 418.25 344.52 417 344.27C415.76 344.02 414.5 343.81 413.25 343.64C411.99 343.47 410.72 343.35 409.45 343.27C408.19 343.19 406.92 343.15 405.65 343.15L390.81 343.15L390.65 410.85ZM507.39 319.88L549.97 319.88C551.22 319.88 552.46 319.9 553.71 319.94C554.96 319.99 556.21 320.05 557.45 320.14C558.7 320.23 559.94 320.33 561.18 320.46C562.43 320.59 563.67 320.74 564.9 320.91C566.07 321.06 567.24 321.27 568.39 321.52C569.54 321.78 570.68 322.08 571.81 322.43C572.93 322.78 574.05 323.18 575.14 323.62C576.23 324.07 577.3 324.56 578.35 325.1C579.33 325.61 580.28 326.18 581.19 326.81C582.09 327.44 582.95 328.12 583.77 328.87C584.59 329.61 585.35 330.4 586.07 331.24C586.78 332.09 587.43 332.97 588.03 333.9C588.7 335.02 589.28 336.2 589.77 337.4C590.27 338.61 590.67 339.86 590.99 341.12C591.3 342.39 591.52 343.68 591.65 344.98C591.77 346.28 591.81 347.59 591.74 348.89C591.8 350.34 591.73 351.79 591.53 353.22C591.32 354.66 590.99 356.07 590.53 357.44C590.07 358.82 589.49 360.15 588.79 361.42C588.09 362.69 587.27 363.89 586.35 365.01C585.41 366.09 584.4 367.1 583.31 368.03C582.23 368.96 581.07 369.82 579.87 370.59C578.66 371.36 577.4 372.04 576.09 372.62C574.79 373.21 573.44 373.71 572.06 374.1L572.06 374.42C572.96 374.55 573.84 374.71 574.72 374.9C575.6 375.1 576.47 375.34 577.33 375.61C578.19 375.88 579.04 376.18 579.87 376.52C580.7 376.86 581.52 377.24 582.32 377.65C583.07 378.02 583.79 378.42 584.5 378.86C585.2 379.3 585.89 379.77 586.55 380.27C587.21 380.76 587.85 381.3 588.46 381.85C589.08 382.41 589.67 383 590.23 383.61C590.78 384.22 591.31 384.86 591.8 385.53C592.29 386.19 592.75 386.88 593.18 387.58C593.6 388.29 593.99 389.02 594.34 389.77C594.7 390.52 595.01 391.28 595.29 392.06C595.59 392.88 595.85 393.72 596.08 394.57C596.3 395.42 596.49 396.27 596.64 397.14C596.79 398 596.9 398.87 596.97 399.75C597.04 400.62 597.07 401.5 597.06 402.37C597.11 403.69 597.07 405.01 596.92 406.32C596.78 407.63 596.55 408.92 596.22 410.2C595.89 411.47 595.48 412.72 594.97 413.94C594.46 415.16 593.87 416.33 593.19 417.46C592.56 418.45 591.87 419.39 591.13 420.3C590.39 421.2 589.6 422.06 588.75 422.88C587.91 423.69 587.03 424.46 586.1 425.17C585.17 425.88 584.2 426.53 583.19 427.13C582.13 427.77 581.05 428.36 579.93 428.9C578.82 429.45 577.69 429.94 576.54 430.39C575.38 430.83 574.21 431.23 573.02 431.57C571.83 431.92 570.63 432.21 569.42 432.45C568.17 432.72 566.91 432.95 565.64 433.15C564.38 433.35 563.11 433.52 561.83 433.65C560.56 433.79 559.28 433.89 558 433.96C556.72 434.03 555.44 434.06 554.16 434.07L507.39 434.07L507.39 319.88ZM532.26 365.56L550.77 365.56C551.26 365.56 551.74 365.54 552.22 365.52C552.7 365.49 553.18 365.45 553.66 365.39C554.14 365.34 554.62 365.27 555.1 365.19C555.57 365.11 556.05 365.02 556.52 364.91C556.96 364.82 557.41 364.7 557.85 364.56C558.29 364.42 558.72 364.27 559.14 364.09C559.57 363.92 559.98 363.72 560.39 363.51C560.8 363.3 561.19 363.07 561.58 362.82C561.96 362.58 562.32 362.31 562.67 362.03C563.01 361.74 563.34 361.44 563.65 361.11C563.95 360.79 564.24 360.44 564.5 360.08C564.77 359.72 565.01 359.34 565.23 358.95C565.46 358.51 565.67 358.05 565.84 357.58C566.02 357.11 566.16 356.62 566.28 356.14C566.39 355.65 566.48 355.15 566.53 354.65C566.58 354.15 566.59 353.65 566.58 353.15C566.6 352.63 566.59 352.12 566.53 351.61C566.48 351.1 566.39 350.6 566.26 350.1C566.13 349.6 565.97 349.12 565.77 348.64C565.57 348.17 565.33 347.72 565.06 347.28C564.82 346.9 564.55 346.53 564.25 346.19C563.96 345.84 563.65 345.51 563.31 345.2C562.98 344.9 562.63 344.61 562.25 344.35C561.88 344.09 561.5 343.85 561.1 343.64C560.67 343.41 560.23 343.2 559.78 343.01C559.34 342.82 558.89 342.64 558.43 342.49C557.97 342.33 557.5 342.19 557.03 342.07C556.56 341.95 556.09 341.85 555.61 341.77C555.12 341.68 554.63 341.6 554.13 341.53C553.64 341.47 553.14 341.41 552.64 341.36C552.14 341.32 551.64 341.28 551.14 341.26C550.65 341.23 550.15 341.22 549.65 341.22L532.55 341.22L532.26 365.56ZM532.39 412.69L554.97 412.69C555.46 412.69 555.96 412.67 556.45 412.64C556.95 412.62 557.44 412.58 557.94 412.52C558.43 412.47 558.92 412.4 559.41 412.32C559.9 412.24 560.39 412.15 560.87 412.05C561.35 411.95 561.82 411.82 562.29 411.68C562.76 411.53 563.22 411.36 563.67 411.18C564.12 410.99 564.57 410.78 565 410.54C565.43 410.31 565.85 410.06 566.26 409.79C566.66 409.52 567.05 409.23 567.42 408.92C567.79 408.6 568.15 408.27 568.48 407.92C568.81 407.57 569.13 407.2 569.42 406.81C569.71 406.42 569.98 406.02 570.23 405.6C570.49 405.12 570.73 404.63 570.93 404.12C571.12 403.61 571.29 403.09 571.42 402.56C571.55 402.03 571.64 401.49 571.69 400.95C571.75 400.4 571.76 399.86 571.74 399.31C571.77 398.74 571.74 398.16 571.66 397.6C571.59 397.03 571.47 396.46 571.3 395.92C571.13 395.37 570.91 394.84 570.65 394.32C570.39 393.81 570.09 393.32 569.74 392.86C569.4 392.45 569.04 392.06 568.65 391.69C568.27 391.32 567.86 390.98 567.43 390.66C567 390.34 566.55 390.05 566.09 389.79C565.62 389.53 565.14 389.3 564.65 389.09C564.13 388.87 563.61 388.67 563.08 388.49C562.55 388.31 562.02 388.14 561.48 387.99C560.94 387.84 560.4 387.71 559.85 387.6C559.3 387.49 558.75 387.39 558.19 387.32C557.65 387.24 557.1 387.17 556.55 387.11C556 387.06 555.45 387.01 554.9 386.97C554.34 386.92 553.79 386.89 553.24 386.87C552.69 386.85 552.13 386.84 551.58 386.84L532.55 386.84L532.39 412.69Z" />
</svg>