<svg version="1.2" baseProfile="tiny-ps" xmlns="http://www.w3.org/2000/svg" viewBox="0 0 400 172" width="400" height="172">
	<title>blue_square_1-5bdc75aaebeb75dc7ae79426ddd9be3b2be1e342510f8202baf6bffa71d7f5c4-svg</title>
	<defs>
		<linearGradient id="grd1" gradientUnits="userSpaceOnUse"  x1="0" y1="85.497" x2="398.408" y2="85.497">
			<stop offset="0" stop-color="#90cea1"  />
			<stop offset="0.56" stop-color="#3cbec9"  />
			<stop offset="1" stop-color="#00b3e5"  />
		</linearGradient>
	</defs>
	<style>
		tspan { white-space:pre }
		.shp0 { fill: url(#grd1) } 
	</style>
	<g id="Layer_2">
		<g id="Layer_1-2">
			<path id="Layer" fill-rule="evenodd" class="shp0" d="M221.3 75.64C216.44 75.64 211.63 74.68 207.14 72.82C202.65 70.96 198.58 68.23 195.14 64.79C191.7 61.35 188.98 57.27 187.12 52.77C185.26 48.28 184.3 43.46 184.29 38.6C184.29 33.73 185.25 28.91 187.11 24.41C188.97 19.91 191.7 15.83 195.13 12.39C198.57 8.95 202.65 6.22 207.14 4.35C211.63 2.49 216.44 1.53 221.3 1.53L361.4 1.53C366.26 1.53 371.07 2.49 375.56 4.35C380.05 6.22 384.13 8.95 387.57 12.39C391.01 15.83 393.73 19.91 395.59 24.41C397.45 28.91 398.41 33.73 398.41 38.6C398.41 43.46 397.45 48.28 395.59 52.77C393.72 57.27 391 61.35 387.56 64.79C384.13 68.23 380.05 70.96 375.56 72.82C371.07 74.68 366.26 75.64 361.4 75.64L221.3 75.64ZM37.01 170.03C32.15 170.03 27.34 169.07 22.85 167.21C18.36 165.35 14.28 162.62 10.85 159.18C7.41 155.74 4.68 151.66 2.82 147.16C0.96 142.67 0 137.85 0 132.99C0 128.12 0.96 123.3 2.82 118.8C4.68 114.3 7.4 110.22 10.84 106.78C14.27 103.34 18.35 100.61 22.84 98.74C27.33 96.88 32.15 95.92 37.01 95.92L198.05 95.92C202.91 95.92 207.72 96.88 212.21 98.74C216.7 100.61 220.78 103.34 224.22 106.78C227.66 110.22 230.38 114.3 232.24 118.8C234.1 123.3 235.06 128.12 235.06 132.99C235.05 137.85 234.1 142.67 232.23 147.16C230.37 151.66 227.65 155.74 224.21 159.18C220.78 162.62 216.7 165.35 212.21 167.21C207.72 169.07 202.91 170.03 198.05 170.03L37.01 170.03ZM21.8 14.47L0.65 14.47L0.65 0L59.29 0L59.29 14.52L38.14 14.52L38.14 74.3L21.8 74.3L21.8 14.47ZM80.65 0L105.36 0L122.43 48.45L122.64 48.45L139.81 0L164.63 0L164.63 74.25L148.29 74.25L148.29 17.3L148.08 17.3L128.61 74.25L116.04 74.25L97.19 17.3L96.98 17.3L96.98 74.3L80.65 74.3L80.65 0ZM319.23 116.77C319.84 118.12 320.38 119.5 320.85 120.92C321.31 122.33 321.68 123.77 321.98 125.22C322.28 126.68 322.49 128.15 322.62 129.63C322.74 131.11 322.79 132.59 322.74 134.08C322.77 135.44 322.72 136.81 322.59 138.17C322.46 139.53 322.25 140.89 321.96 142.22C321.67 143.56 321.31 144.88 320.87 146.18C320.43 147.47 319.92 148.74 319.33 149.98C318.79 151.09 318.19 152.17 317.53 153.22C316.87 154.26 316.15 155.28 315.38 156.24C314.61 157.21 313.79 158.14 312.92 159.02C312.05 159.9 311.14 160.73 310.18 161.51C309.19 162.29 308.17 163.03 307.11 163.71C306.06 164.4 304.97 165.03 303.85 165.62C302.74 166.2 301.6 166.73 300.43 167.21C299.27 167.69 298.08 168.11 296.88 168.48C295.6 168.88 294.31 169.24 293.01 169.54C291.71 169.85 290.39 170.1 289.07 170.3C287.74 170.5 286.41 170.65 285.08 170.75C283.74 170.85 282.41 170.89 281.07 170.89L254.37 170.89L254.37 96.63L278.87 96.63C280.29 96.64 281.71 96.68 283.13 96.77C284.55 96.86 285.97 96.99 287.38 97.17C288.8 97.34 290.2 97.56 291.6 97.82C293 98.08 294.39 98.39 295.77 98.73C297.03 99.03 298.27 99.39 299.49 99.81C300.71 100.24 301.91 100.72 303.09 101.26C304.26 101.8 305.41 102.4 306.52 103.06C307.64 103.72 308.72 104.43 309.76 105.19C310.76 105.95 311.72 106.77 312.63 107.64C313.54 108.51 314.39 109.44 315.19 110.41C315.98 111.39 316.72 112.41 317.4 113.47C318.07 114.53 318.68 115.64 319.23 116.77ZM303.66 143.89C304.03 143.06 304.35 142.2 304.62 141.33C304.9 140.46 305.12 139.58 305.3 138.68C305.47 137.79 305.6 136.88 305.68 135.97C305.75 135.06 305.78 134.15 305.76 133.24C305.77 132.42 305.74 131.6 305.66 130.79C305.58 129.98 305.45 129.17 305.27 128.37C305.1 127.57 304.88 126.79 304.61 126.02C304.34 125.24 304.02 124.49 303.66 123.76C303.35 123.12 303 122.5 302.62 121.9C302.23 121.3 301.82 120.73 301.37 120.18C300.92 119.62 300.45 119.1 299.94 118.6C299.44 118.1 298.9 117.63 298.35 117.19C297.74 116.74 297.11 116.32 296.46 115.93C295.81 115.54 295.15 115.18 294.47 114.85C293.78 114.52 293.09 114.22 292.38 113.96C291.67 113.7 290.95 113.47 290.22 113.27C289.43 113.05 288.62 112.85 287.82 112.68C287.01 112.52 286.19 112.38 285.38 112.27C284.56 112.16 283.74 112.07 282.91 112.02C282.09 111.97 281.26 111.94 280.44 111.95L270.81 111.95L270.81 156L279.29 156C280.17 156 281.05 155.98 281.93 155.94C282.81 155.89 283.68 155.82 284.56 155.73C285.43 155.63 286.3 155.51 287.17 155.36C288.04 155.21 288.9 155.04 289.76 154.84C290.51 154.67 291.26 154.46 291.99 154.22C292.72 153.97 293.44 153.69 294.15 153.37C294.85 153.05 295.53 152.69 296.2 152.3C296.87 151.91 297.51 151.48 298.14 151.02C298.73 150.56 299.3 150.05 299.84 149.51C300.37 148.97 300.88 148.4 301.34 147.8C301.81 147.2 302.24 146.57 302.62 145.92C303.01 145.27 303.36 144.59 303.66 143.89ZM397.19 143.62C397.38 144.15 397.55 144.7 397.7 145.24C397.84 145.79 397.96 146.35 398.06 146.91C398.15 147.46 398.23 148.03 398.27 148.59C398.32 149.16 398.35 149.72 398.35 150.29C398.38 151.15 398.35 152 398.25 152.86C398.16 153.71 398.01 154.55 397.8 155.38C397.59 156.21 397.31 157.02 396.99 157.81C396.66 158.61 396.27 159.37 395.83 160.11C395.42 160.75 394.97 161.36 394.49 161.95C394.01 162.54 393.5 163.1 392.95 163.63C392.4 164.16 391.83 164.66 391.23 165.12C390.62 165.58 389.99 166.01 389.34 166.4C388.65 166.81 387.94 167.2 387.22 167.55C386.49 167.9 385.76 168.22 385.01 168.51C384.26 168.8 383.49 169.06 382.72 169.29C381.95 169.51 381.17 169.7 380.38 169.86C379.57 170.04 378.75 170.19 377.93 170.32C377.11 170.45 376.29 170.56 375.46 170.65C374.64 170.74 373.81 170.8 372.98 170.84C372.15 170.89 371.32 170.91 370.49 170.91L340.13 170.91L340.13 96.66L367.77 96.66C368.58 96.66 369.39 96.67 370.2 96.7C371 96.73 371.81 96.77 372.62 96.83C373.43 96.89 374.23 96.96 375.04 97.05C375.84 97.13 376.64 97.23 377.45 97.35C378.21 97.44 378.96 97.58 379.71 97.74C380.47 97.9 381.21 98.1 381.94 98.33C382.67 98.55 383.4 98.82 384.11 99.11C384.82 99.4 385.52 99.72 386.2 100.07C386.83 100.41 387.44 100.78 388.03 101.19C388.61 101.6 389.17 102.05 389.7 102.53C390.23 103.01 390.73 103.52 391.19 104.07C391.66 104.61 392.09 105.18 392.48 105.78C392.91 106.51 393.29 107.28 393.61 108.06C393.93 108.85 394.19 109.66 394.39 110.48C394.6 111.31 394.74 112.14 394.82 112.99C394.91 113.83 394.93 114.69 394.89 115.53C394.93 116.48 394.88 117.42 394.74 118.35C394.61 119.29 394.39 120.21 394.09 121.1C393.79 121.99 393.41 122.86 392.96 123.69C392.5 124.51 391.97 125.29 391.37 126.02C390.76 126.72 390.11 127.38 389.4 127.99C388.7 128.6 387.95 129.15 387.17 129.65C386.39 130.15 385.57 130.59 384.73 130.98C383.88 131.36 383.01 131.68 382.12 131.94L382.12 132.15C382.69 132.23 383.27 132.34 383.83 132.47C384.4 132.6 384.96 132.75 385.52 132.93C386.08 133.1 386.62 133.3 387.16 133.52C387.7 133.74 388.23 133.98 388.75 134.24C389.23 134.49 389.7 134.75 390.15 135.04C390.6 135.32 391.04 135.63 391.47 135.95C391.89 136.28 392.3 136.62 392.69 136.98C393.09 137.35 393.46 137.73 393.82 138.12C394.18 138.52 394.52 138.94 394.84 139.37C395.16 139.8 395.46 140.25 395.74 140.71C396.02 141.17 396.27 141.65 396.51 142.13C396.74 142.62 396.95 143.11 397.13 143.62L397.19 143.62ZM356.46 126.42L368.29 126.42C368.6 126.42 368.92 126.41 369.23 126.4C369.54 126.38 369.85 126.36 370.16 126.32C370.47 126.29 370.78 126.24 371.08 126.19C371.39 126.13 371.7 126.07 372 126C372.29 125.94 372.58 125.86 372.87 125.77C373.15 125.68 373.44 125.58 373.71 125.46C373.99 125.35 374.26 125.22 374.53 125.09C374.8 124.95 375.06 124.8 375.31 124.64C375.55 124.48 375.78 124.31 376.01 124.12C376.23 123.93 376.44 123.73 376.64 123.52C376.83 123.31 377.02 123.09 377.19 122.85C377.36 122.62 377.51 122.37 377.65 122.12C377.81 121.83 377.94 121.53 378.06 121.23C378.18 120.92 378.27 120.61 378.35 120.29C378.42 119.97 378.48 119.65 378.51 119.32C378.55 119 378.56 118.67 378.55 118.34C378.57 118.01 378.56 117.68 378.52 117.34C378.48 117.01 378.42 116.68 378.34 116.36C378.25 116.04 378.14 115.72 378.01 115.41C377.88 115.11 377.73 114.81 377.55 114.53C377.39 114.28 377.22 114.04 377.03 113.82C376.84 113.59 376.63 113.38 376.42 113.18C376.2 112.98 375.98 112.8 375.74 112.63C375.5 112.45 375.25 112.3 374.99 112.16C374.71 112.01 374.43 111.88 374.14 111.76C373.85 111.64 373.56 111.53 373.26 111.43C372.96 111.33 372.66 111.24 372.35 111.16C372.05 111.08 371.74 111.02 371.43 110.96C371.12 110.9 370.8 110.85 370.47 110.8C370.15 110.75 369.83 110.71 369.51 110.68C369.18 110.65 368.86 110.63 368.53 110.61C368.21 110.59 367.89 110.58 367.56 110.58L356.46 110.58L356.46 126.42ZM381.01 152.53C381.17 152.23 381.31 151.91 381.43 151.58C381.55 151.26 381.65 150.92 381.73 150.58C381.8 150.24 381.86 149.9 381.89 149.55C381.92 149.2 381.92 148.86 381.91 148.51C381.92 148.13 381.9 147.76 381.85 147.39C381.8 147.02 381.72 146.65 381.61 146.3C381.5 145.94 381.35 145.59 381.18 145.26C381.01 144.93 380.81 144.61 380.59 144.31C380.37 144.04 380.14 143.79 379.89 143.54C379.64 143.3 379.37 143.08 379.1 142.87C378.82 142.66 378.53 142.47 378.23 142.3C377.93 142.12 377.62 141.97 377.3 141.84C376.95 141.7 376.61 141.57 376.25 141.45C375.9 141.33 375.55 141.22 375.19 141.13C374.83 141.03 374.47 140.94 374.1 140.87C373.74 140.8 373.37 140.73 373.01 140.68C372.66 140.63 372.31 140.59 371.96 140.55C371.61 140.52 371.27 140.48 370.92 140.46C370.57 140.43 370.22 140.41 369.87 140.4C369.52 140.38 369.17 140.37 368.82 140.37L356.46 140.37L356.46 157.15L371.12 157.15C371.44 157.15 371.76 157.14 372.08 157.12C372.4 157.11 372.72 157.08 373.04 157.05C373.36 157.01 373.67 156.97 373.99 156.91C374.31 156.86 374.62 156.8 374.93 156.73C375.25 156.67 375.56 156.59 375.86 156.5C376.17 156.4 376.47 156.29 376.76 156.17C377.06 156.05 377.35 155.91 377.63 155.76C377.91 155.61 378.18 155.44 378.45 155.26C378.71 155.09 378.96 154.9 379.2 154.7C379.44 154.49 379.67 154.28 379.89 154.05C380.1 153.82 380.3 153.58 380.49 153.32C380.68 153.07 380.85 152.81 381.01 152.53Z" />
		</g>
	</g>
</svg>